<svg width="680" height="520" viewBox="0 0 680 520" xmlns="http://www.w3.org/2000/svg" font-family="sans-serif">
  <defs>
    <marker id="arrow" viewBox="0 0 10 10" refX="8" refY="5" markerWidth="6" markerHeight="6" orient="auto-start-reverse">
      <path d="M2 1L8 5L2 9" fill="none" stroke="#888" stroke-width="1.5"/>
    </marker>
  </defs>

  <!-- UI Layer -->
  <rect x="40" y="40" width="600" height="140" rx="14" fill="#EEEDfe" stroke="#534AB7" stroke-width="0.5"/>
  <text x="340" y="68" text-anchor="middle" font-size="14" font-weight="600" fill="#3C3489">Camada de apresentação (UI)</text>
  <text x="340" y="84" text-anchor="middle" font-size="12" fill="#534AB7">screens/ · widgets/</text>

  <rect x="66" y="98" width="150" height="64" rx="8" fill="#D3D1C7" stroke="#888780" stroke-width="0.5"/>
  <text x="141" y="126" text-anchor="middle" font-size="13" font-weight="600" fill="#2C2C2A">HomeScreen</text>
  <text x="141" y="146" text-anchor="middle" font-size="11" fill="#5F5E5A">Lista paginada</text>

  <rect x="265" y="98" width="150" height="64" rx="8" fill="#D3D1C7" stroke="#888780" stroke-width="0.5"/>
  <text x="340" y="126" text-anchor="middle" font-size="13" font-weight="600" fill="#2C2C2A">DetailScreen</text>
  <text x="340" y="146" text-anchor="middle" font-size="11" fill="#5F5E5A">Stats + favoritar</text>

  <rect x="464" y="98" width="150" height="64" rx="8" fill="#D3D1C7" stroke="#888780" stroke-width="0.5"/>
  <text x="539" y="126" text-anchor="middle" font-size="13" font-weight="600" fill="#2C2C2A">FavoritesScreen</text>
  <text x="539" y="146" text-anchor="middle" font-size="11" fill="#5F5E5A">Stream Firestore</text>

  <line x1="141" y1="180" x2="141" y2="218" stroke="#888" stroke-width="1.2" marker-end="url(#arrow)"/>
  <line x1="340" y1="180" x2="340" y2="218" stroke="#888" stroke-width="1.2" marker-end="url(#arrow)"/>
  <line x1="539" y1="180" x2="539" y2="218" stroke="#888" stroke-width="1.2" marker-end="url(#arrow)"/>

  <!-- Services Layer -->
  <rect x="40" y="220" width="600" height="120" rx="14" fill="#E1F5EE" stroke="#0F6E56" stroke-width="0.5"/>
  <text x="340" y="248" text-anchor="middle" font-size="14" font-weight="600" fill="#085041">Camada de serviços</text>
  <text x="340" y="264" text-anchor="middle" font-size="12" fill="#0F6E56">services/ — isola acesso externo</text>

  <rect x="66" y="278" width="230" height="44" rx="8" fill="#D3D1C7" stroke="#888780" stroke-width="0.5"/>
  <text x="181" y="296" text-anchor="middle" font-size="13" font-weight="600" fill="#2C2C2A">PokeApiService</text>
  <text x="181" y="314" text-anchor="middle" font-size="11" fill="#5F5E5A">http · singleton</text>

  <rect x="344" y="278" width="270" height="44" rx="8" fill="#D3D1C7" stroke="#888780" stroke-width="0.5"/>
  <text x="479" y="296" text-anchor="middle" font-size="13" font-weight="600" fill="#2C2C2A">FavoritesService</text>
  <text x="479" y="314" text-anchor="middle" font-size="11" fill="#5F5E5A">Firestore · singleton</text>

  <line x1="181" y1="340" x2="181" y2="378" stroke="#888" stroke-width="1.2" marker-end="url(#arrow)"/>
  <line x1="181" y1="344" x2="181" y2="462" stroke="#F0997B" stroke-width="1" stroke-dasharray="5 3" marker-end="url(#arrow)"/>
  <line x1="479" y1="344" x2="505" y2="462" stroke="#378ADD" stroke-width="1" stroke-dasharray="5 3" marker-end="url(#arrow)"/>

  <!-- Model Layer -->
  <rect x="40" y="380" width="600" height="64" rx="14" fill="#FAEEDA" stroke="#854F0B" stroke-width="0.5"/>
  <text x="340" y="406" text-anchor="middle" font-size="14" font-weight="600" fill="#633806">Model — pokemon.dart</text>
  <text x="340" y="424" text-anchor="middle" font-size="11" fill="#854F0B">fromJson() · toMap() · idFromUrl() · spriteUrlFromId()</text>

  <!-- External -->
  <rect x="40" y="464" width="270" height="44" rx="10" fill="#FAECE7" stroke="#D85A30" stroke-width="0.5"/>
  <text x="175" y="482" text-anchor="middle" font-size="13" font-weight="600" fill="#993C1D">PokéAPI</text>
  <text x="175" y="500" text-anchor="middle" font-size="11" fill="#D85A30">REST · pokeapi.co</text>

  <rect x="370" y="464" width="270" height="44" rx="10" fill="#E6F1FB" stroke="#185FA5" stroke-width="0.5"/>
  <text x="505" y="482" text-anchor="middle" font-size="13" font-weight="600" fill="#0C447C">Firebase Firestore</text>
  <text x="505" y="500" text-anchor="middle" font-size="11" fill="#185FA5">NoSQL · stream reativo</text>
</svg>
